<?xml version="1.0" standalone="no"?>
<!DOCTYPE svg PUBLIC "-//W3C//DTD SVG 20010904//EN"
 "http://www.w3.org/TR/2001/REC-SVG-20010904/DTD/svg10.dtd">
<svg version="1.0" xmlns="http://www.w3.org/2000/svg"
 width="1024.000000pt" height="1024.000000pt" viewBox="0 0 1024.000000 1024.000000"
 preserveAspectRatio="xMidYMid meet">
<metadata>
Created by potrace 1.11, written by Peter Selinger 2001-2013
</metadata>
<g transform="translate(0.000000,1024.000000) scale(0.100000,-0.100000)"
fill="#000000" stroke="none">
<path d="M4768 8755 c-1 -1 -57 -6 -123 -9 -66 -4 -133 -9 -150 -11 -16 -2
-61 -7 -100 -10 -38 -3 -82 -7 -98 -9 -15 -2 -55 -7 -90 -11 -34 -3 -69 -8
-77 -10 -8 -2 -40 -7 -70 -10 -30 -3 -62 -8 -70 -10 -8 -2 -35 -7 -60 -10 -25
-3 -54 -9 -65 -12 -11 -3 -31 -7 -45 -8 -37 -3 -176 -33 -335 -70 -1192 -282
-2196 -874 -2800 -1650 -347 -446 -551 -910 -630 -1435 -21 -138 -28 -515 -12
-655 14 -124 39 -278 59 -350 5 -22 11 -47 13 -55 16 -83 86 -287 147 -430
208 -488 612 -998 1071 -1352 12 -10 45 -35 72 -57 61 -47 107 -79 250 -175
409 -273 905 -503 1423 -660 304 -93 734 -190 972 -220 19 -2 89 -11 155 -20
205 -26 214 -27 455 -43 234 -15 909 -8 1040 12 14 2 61 6 104 10 43 4 86 8
95 10 9 1 47 6 84 10 37 3 77 8 89 10 11 3 46 7 77 11 31 3 58 8 61 9 3 2 30
6 60 10 30 4 58 9 61 11 3 2 24 6 45 8 57 7 341 70 479 106 243 63 514 151
732 239 102 40 120 48 263 112 358 161 754 403 1050 643 74 60 94 77 199 172
97 88 256 253 326 338 22 27 45 54 50 60 25 26 136 178 192 261 230 344 393
738 458 1110 3 17 8 37 10 45 2 8 6 35 9 60 3 25 9 72 13 105 10 79 10 482 0
565 -16 129 -18 147 -43 270 -131 659 -518 1286 -1110 1800 -129 112 -384 300
-545 401 -255 161 -565 318 -854 433 -384 153 -784 269 -1170 341 -98 18 -257
45 -300 50 -27 4 -77 10 -110 15 -87 13 -130 18 -325 35 -36 3 -90 8 -120 11
-61 6 -806 14 -812 9z"/>
</g>
</svg>
