<svg id="Layer_1" data-name="Layer 1" xmlns="http://www.w3.org/2000/svg" viewBox="0 0 718 614.07"><defs><style>.cls-1,.cls-3{fill:#e6e6e6;}.cls-1,.cls-10,.cls-11,.cls-12,.cls-13,.cls-14,.cls-15,.cls-16,.cls-7,.cls-8{stroke:gray;stroke-miterlimit:10;}.cls-1,.cls-13{stroke-width:8px;}.cls-11,.cls-12,.cls-2{fill:gray;}.cls-4{fill:#666;}.cls-5{fill:#ccc;}.cls-6{fill:#999;}.cls-7,.cls-9{fill:#e0ffff;}.cls-7,.cls-8{stroke-width:5px;}.cls-10,.cls-13,.cls-14,.cls-15,.cls-16,.cls-8{fill:none;}.cls-10,.cls-11{stroke-width:3px;}.cls-12,.cls-15{stroke-width:4px;}.cls-14{stroke-width:6px;}.cls-16{stroke-width:7px;}</style></defs><title>hangar</title><rect class="cls-1" x="100.75" y="233.07" width="51" height="220"/><path class="cls-2" d="M753.38,420.24C696.81,351.59,605.45,307,502.35,307s-194.45,44.59-251,113.24H163V628.49h28.4V629H813.31v-.51H843V420.24Z" transform="translate(-144 -18.93)"/><path class="cls-3" d="M748.51,430.08C693.29,363.35,604.12,320,503.5,320s-189.8,43.35-245,110.08H163V632.5h37v.5H807v-.5h36V430.08Z" transform="translate(-144 -18.93)"/><rect class="cls-4" x="114" y="448.07" width="491" height="9.83"/><rect class="cls-4" x="114" y="448.07" width="13.85" height="166"/><rect class="cls-4" x="591.15" y="448.07" width="13.85" height="166"/><path class="cls-5" d="M155,635" transform="translate(-144 -18.93)"/><rect class="cls-6" x="127.85" y="457.9" width="463.31" height="156.17"/><rect class="cls-2" x="50.24" y="561.07" width="27.76" height="53"/><rect class="cls-7" x="197" y="366.07" width="315" height="44"/><line class="cls-8" x1="244.5" y1="365.57" x2="244.5" y2="409.57"/><line class="cls-8" x1="289.5" y1="366.07" x2="289.5" y2="410.07"/><line class="cls-8" x1="332.5" y1="365.57" x2="332.5" y2="409.57"/><line class="cls-8" x1="377.5" y1="366.07" x2="377.5" y2="410.07"/><line class="cls-8" x1="421.5" y1="365.57" x2="421.5" y2="409.57"/><line class="cls-8" x1="466.5" y1="366.07" x2="466.5" y2="410.07"/><rect class="cls-2" y="401.07" width="103" height="10"/><rect class="cls-2" x="627" y="401.07" width="91" height="10"/><polygon class="cls-1" points="187.25 127.07 78.25 127.07 36.25 127.07 75.64 233.07 105.25 233.07 157.71 233.07 180.25 233.07 216.25 127.07 187.25 127.07"/><polygon class="cls-9" points="187.42 194.07 202.15 151.07 50.5 151.07 66.61 194.07 187.42 194.07"/><line class="cls-10" x1="96" y1="151.07" x2="104" y2="194.07"/><line class="cls-10" x1="154.5" y1="151.57" x2="149.5" y2="194.57"/><line class="cls-10" x1="46.5" y1="150.57" x2="208.5" y2="150.57"/><line class="cls-10" x1="60.5" y1="193.57" x2="191.5" y2="193.57"/><path class="cls-11" d="M389.5,148h-234V129L276.83,106.5,389.5,129Z" transform="translate(-144 -18.93)"/><polygon class="cls-11" points="161.5 215.57 54.5 215.57 53 215.57 59.05 240.57 60.5 240.57 157.1 240.57 194.25 240.57 202.5 215.57 161.5 215.57"/><path class="cls-11" d="M439.5,191.5" transform="translate(-144 -18.93)"/><rect class="cls-12" x="2" y="43.07" width="40" height="29"/><line class="cls-13" x1="42.5" y1="32.57" x2="42.5" y2="125.57"/><rect class="cls-12" x="184" y="57" width="40" height="29" transform="translate(-155.22 32.38) rotate(-13.96)"/><line class="cls-14" x1="180" y1="97.07" x2="202" y2="20.07"/><line class="cls-15" x1="181" y1="31.07" x2="208" y2="40.07"/><line class="cls-15" x1="168" y1="45.07" x2="216" y2="60.07"/><line class="cls-15" x1="152" y1="58.07" x2="222" y2="79.07"/><line class="cls-15" x1="144" y1="68.07" x2="228" y2="90.07"/><line class="cls-14" x1="110" y1="34.07" x2="110" y2="93.07"/><line class="cls-16" x1="130" y1="0.07" x2="128" y2="101.07"/></svg>