<svg id="Layer_1" data-name="Layer 1" xmlns="http://www.w3.org/2000/svg" viewBox="0 0 512.22 558"><defs><style>.cls-1,.cls-2,.cls-3,.cls-4{stroke:#000;stroke-miterlimit:10;}.cls-2,.cls-4{stroke-width:8px;}.cls-3,.cls-4{fill:none;}.cls-3{stroke-width:11px;}</style></defs><title>binder</title><rect class="cls-1" x="78.72" y="325" width="44" height="143"/><rect class="cls-1" x="78.72" y="170" width="44" height="143"/><polygon class="cls-1" points="480.71 31.5 480.71 0.5 122.72 0.5 78.72 0.5 78.72 44.5 78.72 158 122.72 158 122.72 44.5 467.71 44.5 467.71 513.5 122.72 513.5 122.72 480 78.72 480 78.72 526.5 109.72 526.5 109.72 557.5 467.71 557.5 511.71 557.5 511.71 513.5 511.71 31.5 480.71 31.5"/><circle class="cls-2" cx="167.22" cy="129" r="25"/><path class="cls-3" d="M252.5,589.63c-3-.08-6-.13-9-.13-56.45,0-102.22,15.22-102.22,34s45.77,34,102.22,34c3,0,6,0,9-.13Z" transform="translate(-134.78 -498)"/><path class="cls-4" d="M247,656c9.82,6.8,69.4-2.07,67-8" transform="translate(-134.78 -498)"/><path class="cls-3" d="M252.5,743.63c-3-.08-6-.13-9-.13-56.45,0-102.22,15.22-102.22,34s45.77,34,102.22,34c3,0,6,0,9-.13Z" transform="translate(-134.78 -498)"/><path class="cls-3" d="M251.5,896.63c-3-.08-6-.13-9-.13-56.45,0-102.22,15.22-102.22,34s45.77,34,102.22,34c3,0,6,0,9-.13Z" transform="translate(-134.78 -498)"/><path class="cls-4" d="M243,810c9.82,6.8,69.4-2.07,67-8" transform="translate(-134.78 -498)"/><path class="cls-4" d="M244,963c9.82,6.8,69.4-2.07,67-8" transform="translate(-134.78 -498)"/><circle class="cls-2" cx="167.22" cy="282" r="25"/><circle class="cls-2" cx="167.22" cy="437" r="25"/></svg>