<svg xmlns="http://www.w3.org/2000/svg" viewBox="0 0 746 695" height="84" width="84" fill="#0eabda;">
	<defs>
		<style>.cls-1,.cls-2,.cls-3{stroke:#0eabda;stroke-miterlimit:10;}
			.cls-2,.cls-3{fill:none;}
			.cls-2{stroke-width:44px;}
			.cls-3{stroke-width:21px;}
		</style>
	</defs>
	<title>safetyIcon</title>
	<g id="Layer_2" data-name="Layer 2">
		<g id="Layer_1-2" data-name="Layer 1">
			<rect class="cls-1" x="0.5" y="381.5" width="745" height="80" rx="40" ry="40" fill="#0eabda"/>
			<path class="cls-1" d="M559.75,102.12v81.07a25,25,0,1,1-50,0V66.59a294.07,294.07,0,0,0-29-14.41V212a25,25,0,0,1-50,0V35.92q-6.76-1.53-13.62-2.73V18.25A17.75,17.75,0,0,0,399.38.5h-61.5a17.75,17.75,0,0,0-17.75,17.75V33.19c-5.18.9-10.3,2-15.38,3.13V212a25,25,0,0,1-50,0V52.91a294.43,294.43,0,0,0-30,15.26v115a25,25,0,0,1-50,0V104.55c-69,61.65-113.12,155.51-113.12,260.66,0,1.1,0,2.19,0,3.29H675.59c0-1.1,0-2.19,0-3.29C675.63,258.67,630.36,163.72,559.75,102.12Z" fill="#0eabda"/>
			<path class="cls-2" d="M612,501.6a55.73,55.73,0,0,0-19.11-4.1H151a55.78,55.78,0,0,0-19.12,4.1L96.48,537a55.61,55.61,0,0,0-4.11,19.12v58.22a55.61,55.61,0,0,0,4.11,19.12L131.9,668.9A55.78,55.78,0,0,0,151,673H327.39c5.5,0,11.06-3.13,12.36-7s3.8-11.22,5.57-16.43L370.25,576c1.77-5.21,4.66-5.21,6.42,0l24.94,73.6c1.77,5.21,4.27,12.6,5.57,16.43s6.85,7,12.35,7H592.84A55.73,55.73,0,0,0,612,668.9l35.43-35.42a55.83,55.83,0,0,0,4.1-19.12V556.14a55.83,55.83,0,0,0-4.1-19.12Z" fill="#0eabda"/>
			<rect class="cls-3" x="651.87" y="539" width="60.25" height="75.5" rx="10" ry="10" fill="#0eabda"/>
			<rect class="cls-3" x="33.87" y="539" width="60.25" height="75.5" rx="10" ry="10" fill="#0eabda"/>
		</g></g>
	</svg>