<svg id="Layer_1" data-name="Layer 1" xmlns="http://www.w3.org/2000/svg" viewBox="0 0 132.74 100.72"><defs>
	<style>.cls-1{fill-rule:evenodd;}</style>
</defs><title>close</title>
<g id="Forma_1" data-name="Forma 1">
	<path class="cls-1" d="M131,75a11.73,11.73,0,0,0-2.43-3.84L114.41,57a12,12,0,0,0-3.84-2.43,11.75,11.75,0,0,0-4.45-1H59.21a4.83,4.83,0,0,0-4.85,4.85V82h6.47V60H67.3v21a4.81,4.81,0,0,0,4.85,4.85h29.12a4.83,4.83,0,0,0,4.85-4.85V60a5.43,5.43,0,0,1,2,.51,5.3,5.3,0,0,1,1.72,1L124,75.76a7.44,7.44,0,0,1,1.51,3.69v45.29h-6.47v-21a4.85,4.85,0,0,0-4.85-4.85H72.15a4.83,4.83,0,0,0-4.85,4.85v21H60.83V102H54.36v24.36a4.81,4.81,0,0,0,4.85,4.85h67.94a4.81,4.81,0,0,0,4.85-4.85V79.45A11.75,11.75,0,0,0,131,75ZM99.65,77.83A1.64,1.64,0,0,1,98,79.45h-9.7a1.64,1.64,0,0,1-1.62-1.62V61.66A1.64,1.64,0,0,1,88.33,60H98a1.64,1.64,0,0,1,1.62,1.62Zm12.94,46.91H73.77V105.33h38.82Z" transform="translate(-10.59 -42.28)"/>
	</g><g id="Forma_1-2" data-name="Forma 1">
		<path class="cls-1" d="M134.49,42.28,55,43c-3.44-.43-6,2-6,4s2.56,4.43,6,4l79.49-.41c1.62,0,2.94,1.86,2.94,4.15v74.79c0,2.3-1.32,4.16-2.94,4.16L55,135a4.07,4.07,0,1,0-1,8l80.49-1c4.87,0,8.84-5.59,8.84-12.47V54.74C143.33,47.87,139.36,42.28,134.49,42.28ZM25.85,96.52H77.56a4.44,4.44,0,0,0,0-8.88H25.85l19.3-19a4.44,4.44,0,1,0-6.24-6.32l-27,26.63a4.44,4.44,0,0,0,0,6.32l27,26.63a4.44,4.44,0,1,0,6.24-6.32Z" transform="translate(-10.59 -42.28)"/>
	</g></svg>