<svg xmlns="http://www.w3.org/2000/svg" height="84" version="1.1" viewBox="-61 0 512 512" width="84">
<g id="surface1">
<path d="M 311.222656 0 L 0 0 L 0 512 L 390.015625 512 L 390.015625 78.789062 Z M 319.757812 50.960938 L 338.773438 69.976562 L 319.757812 69.976562 Z M 30 482 L 30 30 L 289.757812 30 L 289.757812 99.976562 L 360.015625 99.976562 L 360.015625 482 Z M 30 482 " style=" stroke:none;fill-rule:nonzero;fill:#0eabda;fill-opacity:1;" />
<path d="M 69.492188 264.761719 L 181.367188 264.761719 L 181.367188 114.753906 L 69.492188 114.753906 Z M 99.492188 144.753906 L 151.367188 144.753906 L 151.367188 234.761719 L 99.492188 234.761719 Z M 99.492188 144.753906 " style=" stroke:none;fill-rule:nonzero;fill:#0eabda;fill-opacity:1;" />
<path d="M 70.886719 294.765625 L 179.972656 294.765625 L 179.972656 324.765625 L 70.886719 324.765625 Z M 70.886719 294.765625 " style=" stroke:none;fill-rule:nonzero;fill:#0eabda;fill-opacity:1;" />
<path d="M 70.886719 354.769531 L 179.972656 354.769531 L 179.972656 384.769531 L 70.886719 384.769531 Z M 70.886719 354.769531 " style=" stroke:none;fill-rule:nonzero;fill:#0eabda;fill-opacity:1;" />
<path d="M 70.886719 414.773438 L 179.972656 414.773438 L 179.972656 444.773438 L 70.886719 444.773438 Z M 70.886719 414.773438 " style=" stroke:none;fill-rule:nonzero;fill:#0eabda;fill-opacity:1;" />
<path d="M 210.058594 444.773438 L 321.9375 444.773438 L 321.9375 294.765625 L 210.058594 294.765625 Z M 240.058594 324.765625 L 291.9375 324.765625 L 291.9375 414.773438 L 240.058594 414.773438 Z M 240.058594 324.765625 " style=" stroke:none;fill-rule:nonzero;fill:#0eabda;fill-opacity:1;" />
<path d="M 211.457031 234.761719 L 320.539062 234.761719 L 320.539062 264.761719 L 211.457031 264.761719 Z M 211.457031 234.761719 " style=" stroke:none;fill-rule:nonzero;fill:#0eabda;fill-opacity:1;" />
<path d="M 211.457031 174.757812 L 320.539062 174.757812 L 320.539062 204.757812 L 211.457031 204.757812 Z M 211.457031 174.757812 " style=" stroke:none;fill-rule:nonzero;fill:#0eabda;fill-opacity:1;" />
<path d="M 211.457031 114.753906 L 320.539062 114.753906 L 320.539062 144.753906 L 211.457031 144.753906 Z M 211.457031 114.753906 " style=" stroke:none;fill-rule:nonzero;fill:#0eabda;fill-opacity:1;" />
</g>
</svg>